<?xml version="1.0" encoding="UTF-8"?>
<svg id="Layer_2" data-name="Layer 2" xmlns="http://www.w3.org/2000/svg" viewBox="0 0 575.96 207.53">
  <g id="Layer_1-2" data-name="Layer 1">
    <g>
      <g>
        <path d="m15.37,43.06c-.21,0-.4,0-.58.01.08.16.18.33.28.51l12.44,21.55,12.44,21.55c.1.18.2.35.3.5.1-.15.2-.32.3-.5l12.44-21.55,12.44-21.55c.1-.18.2-.35.28-.51-.18,0-.38-.01-.58-.01H15.37Z"/>
        <path d="m65.14,29.04H15.37c-13.69,0-19.29,9.7-12.44,21.55,6.84,11.85,18.04,31.25,24.89,43.11,3.42,5.93,7.93,8.89,12.44,8.89s9.02-2.96,12.44-8.89c6.84-11.85,18.04-31.25,24.89-43.11,6.84-11.85,1.24-21.55-12.44-21.55Zm6.37,18.05l-24.89,43.11c-1.95,3.37-4.33,5.39-6.37,5.39s-4.43-2.01-6.38-5.39L8.99,47.09c-1.95-3.37-2.5-6.44-1.48-8.21,1.02-1.77,3.96-2.83,7.85-2.83h49.78c3.89,0,6.83,1.06,7.85,2.83,1.02,1.77.47,4.84-1.48,8.21Z"/>
      </g>
      <g>
        <path d="m65.14,164.57c.21,0,.4,0,.58-.01-.08-.16-.18-.33-.28-.51l-12.44-21.55-12.44-21.55c-.1-.18-.2-.35-.3-.5-.1.15-.2.32-.3.5l-12.44,21.55-12.44,21.55c-.1.18-.2.35-.28.51.18,0,.38.01.58.01h49.78Z"/>
        <path d="m15.37,178.6h49.78c13.69,0,19.29-9.7,12.44-21.55-6.84-11.85-18.04-31.25-24.89-43.11-3.42-5.93-7.93-8.89-12.44-8.89s-9.02,2.96-12.44,8.89c-6.84,11.85-18.04,31.25-24.89,43.11-6.84,11.85-1.24,21.55,12.44,21.55Zm-6.37-18.05l24.89-43.11c1.95-3.37,4.33-5.39,6.37-5.39s4.43,2.01,6.38,5.39l24.89,43.11c1.95,3.37,2.5,6.44,1.48,8.21-1.02,1.77-3.96,2.83-7.85,2.83H15.36c-3.89,0-6.83-1.06-7.85-2.83-1.02-1.77-.47-4.84,1.48-8.21Z"/>
      </g>
      <g>
        <path d="m203.33,137.98c0,6.96,1.8,9.65,6.73,9.87,3.59.45,5.61,4.71,5.38,8.53-.45,3.81-3.14,7.4-10.32,7.4-10.32,0-17.27-5.38-19.07-16.15-7.63,10.32-20.42,16.83-38.81,16.83-28.94,0-47.56-17.5-47.56-46.44,0-32.08,21.54-50.7,52.5-50.7s51.15,19.29,51.15,49.81v20.86Zm-51.15-55.41c-20.42,0-34.1,13.01-34.1,34.33s13.91,32.08,32.3,32.08c20.42,0,35-13.46,35-33.43s-13.69-32.98-33.2-32.98Z"/>
        <path d="m251.78,137.53c0,6.96,1.8,9.42,6.51,9.65,3.81.67,5.83,4.94,5.39,8.75-.23,4.04-3.14,7.85-10.55,7.85-12.12,0-19.97-7.63-19.97-22.43V8.53c0-5.61,4.26-8.53,9.2-8.53s9.42,2.92,9.42,8.53v129Z"/>
        <path d="m324.24,207.53c-17.27,0-24.9-2.24-36.79-5.61-4.04-1.12-5.83-4.49-5.83-7.85,0-4.94,3.81-9.65,10.32-7.63,10.1,2.69,18.17,4.93,31.63,4.93,18.85,0,33.88-7.63,33.88-30.51v-16.6c-1.12,11.44-13.24,21.76-32.31,21.76-25.8,0-42.4-13.46-42.4-47.11v-40.61c0-6.06,4.71-8.75,9.42-8.75s9.2,2.92,9.2,8.75v40.16c0,21.76,12.12,29.84,28.04,29.84s27.6-8.52,28.04-29.16v-40.83c0-6.06,4.49-8.75,9.2-8.75s9.2,2.92,9.2,8.75v82.56c0,35-23.56,46.67-51.6,46.67Z"/>
        <path d="m399.84,48.68c0-5.61,4.26-8.53,8.74-8.53s8.97,2.92,8.97,8.53v20.86h18.85c6.06,0,9.2,4.26,9.2,8.75s-3.14,8.75-9.2,8.75h-18.85v32.08c0,20.64,8.08,27.15,23.78,27.15,5.61,0,8.08,4.49,8.08,8.75,0,4.49-2.47,8.75-8.98,8.75-28.94,0-40.6-12.56-40.6-44.65V48.68Z"/>
        <path d="m563.83,137.98c0,6.96,1.79,9.65,6.73,9.87,3.59.45,5.6,4.71,5.39,8.53-.45,3.81-3.14,7.4-10.32,7.4-10.32,0-17.27-5.38-19.07-16.15-7.63,10.32-20.42,16.83-38.81,16.83-28.94,0-47.56-17.5-47.56-46.44,0-32.08,21.54-50.7,52.5-50.7s51.15,19.29,51.15,49.81v20.86Zm-51.15-55.41c-20.42,0-34.1,13.01-34.1,34.33s13.91,32.08,32.3,32.08c20.42,0,35-13.46,35-33.43s-13.68-32.98-33.2-32.98Z"/>
      </g>
    </g>
  </g>
</svg>